<?xml version="1.0" encoding="UTF-8" standalone="no"?>
<!DOCTYPE svg PUBLIC "-//W3C//DTD SVG 1.1//EN" "http://www.w3.org/Graphics/SVG/1.1/DTD/svg11.dtd">
<svg width="100%" height="100%" viewBox="0 0 640 640" version="1.1" xmlns="http://www.w3.org/2000/svg" xmlns:xlink="http://www.w3.org/1999/xlink" xml:space="preserve" xmlns:serif="http://www.serif.com/" style="fill-rule:evenodd;clip-rule:evenodd;stroke-linejoin:round;stroke-miterlimit:2;">
    <g transform="matrix(6.4,0,0,6.4,0,0)">
        <path d="M94.863,39.683C94.499,38.559 93.591,37.801 90.867,37.547L66.011,35.241C64.535,35.104 63.725,34.515 63.139,33.155L53.266,10.228C52.184,7.715 51.184,7.087 50,7.087C48.817,7.087 47.816,7.715 46.733,10.23L36.86,33.157C36.274,34.517 35.464,35.106 33.987,35.243L9.132,37.548C6.409,37.802 5.5,38.56 5.135,39.684C4.769,40.809 5.057,41.955 7.114,43.762L25.866,60.236C26.98,61.215 27.289,62.168 26.964,63.614L21.474,87.965C20.873,90.635 21.314,91.733 22.271,92.427C23.228,93.122 24.407,93.202 26.76,91.805L48.225,79.061C49.5,78.303 50.5,78.303 51.775,79.061L73.238,91.805C75.592,93.201 76.771,93.121 77.728,92.426C78.685,91.731 79.124,90.634 78.525,87.964L73.035,63.613C72.71,62.167 73.019,61.215 74.133,60.234L92.885,43.761C94.941,41.954 95.23,40.808 94.863,39.683Z" style="fill:white;fill-rule:nonzero;stroke:black;stroke-width:6.25px;"/>
    </g>
</svg>
